<svg width="227" height="27" viewBox="0 0 227 27" fill="none" xmlns="http://www.w3.org/2000/svg">
<path d="M36.4904 18.144C36.1184 18.144 35.8304 18.042 35.6264 17.838C35.4344 17.622 35.3384 17.328 35.3384 16.956V6.354C35.3384 5.97 35.4344 5.676 35.6264 5.472C35.8304 5.268 36.1184 5.166 36.4904 5.166C36.8624 5.166 37.1444 5.268 37.3364 5.472C37.5404 5.676 37.6424 5.97 37.6424 6.354V16.956C37.6424 17.328 37.5464 17.622 37.3544 17.838C37.1624 18.042 36.8744 18.144 36.4904 18.144ZM43.2985 18.144C42.9505 18.144 42.6805 18.048 42.4885 17.856C42.3085 17.664 42.2185 17.388 42.2185 17.028V6.318C42.2185 5.946 42.3085 5.664 42.4885 5.472C42.6805 5.268 42.9265 5.166 43.2265 5.166C43.5025 5.166 43.7065 5.22 43.8385 5.328C43.9825 5.424 44.1505 5.592 44.3425 5.832L51.2365 14.778H50.7685V6.264C50.7685 5.916 50.8585 5.646 51.0385 5.454C51.2305 5.262 51.5005 5.166 51.8485 5.166C52.1965 5.166 52.4605 5.262 52.6405 5.454C52.8205 5.646 52.9105 5.916 52.9105 6.264V17.064C52.9105 17.4 52.8265 17.664 52.6585 17.856C52.4905 18.048 52.2625 18.144 51.9745 18.144C51.6985 18.144 51.4765 18.09 51.3085 17.982C51.1525 17.874 50.9785 17.7 50.7865 17.46L43.9105 8.514H44.3605V17.028C44.3605 17.388 44.2705 17.664 44.0905 17.856C43.9105 18.048 43.6465 18.144 43.2985 18.144ZM61.8574 18.18C61.3294 18.18 60.8014 18.138 60.2734 18.054C59.7454 17.982 59.2474 17.868 58.7794 17.712C58.3114 17.544 57.8914 17.34 57.5194 17.1C57.3034 16.956 57.1534 16.782 57.0694 16.578C56.9854 16.374 56.9554 16.176 56.9794 15.984C57.0154 15.78 57.0934 15.606 57.2134 15.462C57.3454 15.306 57.5074 15.21 57.6994 15.174C57.8914 15.138 58.1014 15.192 58.3294 15.336C58.8574 15.648 59.4154 15.876 60.0034 16.02C60.5914 16.164 61.2094 16.236 61.8574 16.236C62.8054 16.236 63.4954 16.08 63.9274 15.768C64.3594 15.444 64.5754 15.03 64.5754 14.526C64.5754 14.106 64.4194 13.776 64.1074 13.536C63.8074 13.296 63.2854 13.098 62.5414 12.942L60.5614 12.528C59.4214 12.288 58.5694 11.886 58.0054 11.322C57.4534 10.746 57.1774 9.99 57.1774 9.054C57.1774 8.466 57.2974 7.932 57.5374 7.452C57.7774 6.972 58.1134 6.558 58.5454 6.21C58.9894 5.862 59.5114 5.598 60.1114 5.418C60.7234 5.226 61.3954 5.13 62.1274 5.13C62.8474 5.13 63.5314 5.22 64.1794 5.4C64.8274 5.58 65.4094 5.844 65.9254 6.192C66.1174 6.324 66.2434 6.486 66.3034 6.678C66.3754 6.87 66.3934 7.062 66.3574 7.254C66.3214 7.434 66.2374 7.59 66.1054 7.722C65.9734 7.854 65.8054 7.932 65.6014 7.956C65.4094 7.98 65.1874 7.92 64.9354 7.776C64.4914 7.524 64.0414 7.344 63.5854 7.236C63.1294 7.128 62.6374 7.074 62.1094 7.074C61.5574 7.074 61.0834 7.152 60.6874 7.308C60.2914 7.464 59.9854 7.686 59.7694 7.974C59.5654 8.25 59.4634 8.58 59.4634 8.964C59.4634 9.396 59.6074 9.744 59.8954 10.008C60.1834 10.26 60.6754 10.458 61.3714 10.602L63.3334 11.016C64.5214 11.268 65.4034 11.664 65.9794 12.204C66.5674 12.744 66.8614 13.464 66.8614 14.364C66.8614 14.94 66.7414 15.462 66.5014 15.93C66.2734 16.398 65.9374 16.8 65.4934 17.136C65.0614 17.472 64.5394 17.73 63.9274 17.91C63.3154 18.09 62.6254 18.18 61.8574 18.18ZM74.5872 18.144C74.2152 18.144 73.9272 18.042 73.7232 17.838C73.5312 17.622 73.4352 17.328 73.4352 16.956V7.236H69.9252C69.6132 7.236 69.3672 7.152 69.1872 6.984C69.0192 6.804 68.9352 6.564 68.9352 6.264C68.9352 5.952 69.0192 5.718 69.1872 5.562C69.3672 5.394 69.6132 5.31 69.9252 5.31H79.2492C79.5612 5.31 79.8012 5.394 79.9692 5.562C80.1492 5.718 80.2392 5.952 80.2392 6.264C80.2392 6.564 80.1492 6.804 79.9692 6.984C79.8012 7.152 79.5612 7.236 79.2492 7.236H75.7392V16.956C75.7392 17.328 75.6432 17.622 75.4512 17.838C75.2592 18.042 74.9712 18.144 74.5872 18.144ZM82.0746 18.144C81.7866 18.144 81.5526 18.078 81.3726 17.946C81.2046 17.814 81.1026 17.64 81.0666 17.424C81.0306 17.196 81.0726 16.944 81.1926 16.668L85.9446 6.138C86.1006 5.79 86.2866 5.544 86.5026 5.4C86.7306 5.244 86.9886 5.166 87.2766 5.166C87.5526 5.166 87.7986 5.244 88.0146 5.4C88.2426 5.544 88.4346 5.79 88.5906 6.138L93.3606 16.668C93.4926 16.944 93.5406 17.196 93.5046 17.424C93.4686 17.652 93.3666 17.832 93.1986 17.964C93.0306 18.084 92.8086 18.144 92.5326 18.144C92.1966 18.144 91.9326 18.066 91.7406 17.91C91.5606 17.742 91.3986 17.49 91.2546 17.154L90.0846 14.436L91.0566 15.066H83.4606L84.4326 14.436L83.2806 17.154C83.1246 17.502 82.9626 17.754 82.7946 17.91C82.6266 18.066 82.3866 18.144 82.0746 18.144ZM87.2406 7.812L84.7206 13.806L84.2526 13.23H90.2646L89.8146 13.806L87.2766 7.812H87.2406ZM105.054 18C104.658 18 104.352 17.898 104.136 17.694C103.932 17.478 103.83 17.172 103.83 16.776V6.534C103.83 6.138 103.932 5.838 104.136 5.634C104.352 5.418 104.658 5.31 105.054 5.31H108.546C110.67 5.31 112.308 5.856 113.46 6.948C114.624 8.04 115.206 9.606 115.206 11.646C115.206 12.666 115.056 13.572 114.756 14.364C114.468 15.144 114.036 15.804 113.46 16.344C112.896 16.884 112.2 17.298 111.372 17.586C110.556 17.862 109.614 18 108.546 18H105.054ZM106.134 16.092H108.402C109.146 16.092 109.788 16.002 110.328 15.822C110.88 15.63 111.336 15.354 111.696 14.994C112.068 14.622 112.344 14.16 112.524 13.608C112.704 13.044 112.794 12.39 112.794 11.646C112.794 10.158 112.428 9.048 111.696 8.316C110.964 7.584 109.866 7.218 108.402 7.218H106.134V16.092ZM125.029 18.18C123.805 18.18 122.731 17.91 121.807 17.37C120.895 16.83 120.187 16.074 119.683 15.102C119.179 14.118 118.927 12.966 118.927 11.646C118.927 10.65 119.071 9.756 119.359 8.964C119.647 8.16 120.055 7.476 120.583 6.912C121.123 6.336 121.765 5.898 122.509 5.598C123.265 5.286 124.105 5.13 125.029 5.13C126.265 5.13 127.339 5.4 128.251 5.94C129.163 6.468 129.871 7.218 130.375 8.19C130.879 9.162 131.131 10.308 131.131 11.628C131.131 12.624 130.987 13.524 130.699 14.328C130.411 15.132 129.997 15.822 129.457 16.398C128.929 16.974 128.287 17.418 127.531 17.73C126.787 18.03 125.953 18.18 125.029 18.18ZM125.029 16.2C125.809 16.2 126.469 16.02 127.009 15.66C127.561 15.3 127.981 14.778 128.269 14.094C128.569 13.41 128.719 12.594 128.719 11.646C128.719 10.206 128.395 9.09 127.747 8.298C127.111 7.506 126.205 7.11 125.029 7.11C124.261 7.11 123.601 7.29 123.049 7.65C122.497 7.998 122.071 8.514 121.771 9.198C121.483 9.87 121.339 10.686 121.339 11.646C121.339 13.074 121.663 14.19 122.311 14.994C122.959 15.798 123.865 16.2 125.029 16.2ZM139.421 18.144C139.097 18.144 138.833 18.066 138.629 17.91C138.437 17.754 138.281 17.508 138.161 17.172L134.399 6.534C134.267 6.15 134.291 5.826 134.471 5.562C134.663 5.298 134.981 5.166 135.425 5.166C135.749 5.166 136.001 5.244 136.181 5.4C136.361 5.544 136.505 5.778 136.613 6.102L139.853 15.714H139.133L142.517 6.12C142.637 5.796 142.787 5.556 142.967 5.4C143.147 5.244 143.381 5.166 143.669 5.166C143.957 5.166 144.185 5.244 144.353 5.4C144.521 5.556 144.665 5.802 144.785 6.138L148.061 15.714H147.431L150.725 6.102C150.833 5.79 150.977 5.556 151.157 5.4C151.337 5.244 151.583 5.166 151.895 5.166C152.279 5.166 152.561 5.298 152.741 5.562C152.921 5.826 152.945 6.15 152.813 6.534L149.015 17.19C148.895 17.514 148.739 17.754 148.547 17.91C148.355 18.066 148.097 18.144 147.773 18.144C147.449 18.144 147.191 18.066 146.999 17.91C146.807 17.754 146.651 17.508 146.531 17.172L143.399 8.244H143.813L140.645 17.19C140.525 17.514 140.369 17.754 140.177 17.91C139.997 18.066 139.745 18.144 139.421 18.144ZM157.876 18.144C157.528 18.144 157.258 18.048 157.066 17.856C156.886 17.664 156.796 17.388 156.796 17.028V6.318C156.796 5.946 156.886 5.664 157.066 5.472C157.258 5.268 157.504 5.166 157.804 5.166C158.08 5.166 158.284 5.22 158.416 5.328C158.56 5.424 158.728 5.592 158.92 5.832L165.814 14.778H165.346V6.264C165.346 5.916 165.436 5.646 165.616 5.454C165.808 5.262 166.078 5.166 166.426 5.166C166.774 5.166 167.038 5.262 167.218 5.454C167.398 5.646 167.488 5.916 167.488 6.264V17.064C167.488 17.4 167.404 17.664 167.236 17.856C167.068 18.048 166.84 18.144 166.552 18.144C166.276 18.144 166.054 18.09 165.886 17.982C165.73 17.874 165.556 17.7 165.364 17.46L158.488 8.514H158.938V17.028C158.938 17.388 158.848 17.664 158.668 17.856C158.488 18.048 158.224 18.144 157.876 18.144ZM173.231 18C172.859 18 172.571 17.898 172.367 17.694C172.163 17.478 172.061 17.184 172.061 16.812V6.426C172.061 6.042 172.157 5.754 172.349 5.562C172.553 5.358 172.841 5.256 173.213 5.256C173.585 5.256 173.867 5.358 174.059 5.562C174.263 5.754 174.365 6.042 174.365 6.426V16.038H179.585C179.909 16.038 180.155 16.122 180.323 16.29C180.503 16.458 180.593 16.698 180.593 17.01C180.593 17.322 180.503 17.568 180.323 17.748C180.155 17.916 179.909 18 179.585 18H173.231ZM188.971 18.18C187.747 18.18 186.673 17.91 185.749 17.37C184.837 16.83 184.129 16.074 183.625 15.102C183.121 14.118 182.869 12.966 182.869 11.646C182.869 10.65 183.013 9.756 183.301 8.964C183.589 8.16 183.997 7.476 184.525 6.912C185.065 6.336 185.707 5.898 186.451 5.598C187.207 5.286 188.047 5.13 188.971 5.13C190.207 5.13 191.281 5.4 192.193 5.94C193.105 6.468 193.813 7.218 194.317 8.19C194.821 9.162 195.073 10.308 195.073 11.628C195.073 12.624 194.929 13.524 194.641 14.328C194.353 15.132 193.939 15.822 193.399 16.398C192.871 16.974 192.229 17.418 191.473 17.73C190.729 18.03 189.895 18.18 188.971 18.18ZM188.971 16.2C189.751 16.2 190.411 16.02 190.951 15.66C191.503 15.3 191.923 14.778 192.211 14.094C192.511 13.41 192.661 12.594 192.661 11.646C192.661 10.206 192.337 9.09 191.689 8.298C191.053 7.506 190.147 7.11 188.971 7.11C188.203 7.11 187.543 7.29 186.991 7.65C186.439 7.998 186.013 8.514 185.713 9.198C185.425 9.87 185.281 10.686 185.281 11.646C185.281 13.074 185.605 14.19 186.253 14.994C186.901 15.798 187.807 16.2 188.971 16.2ZM199.078 18.144C198.79 18.144 198.556 18.078 198.376 17.946C198.208 17.814 198.106 17.64 198.07 17.424C198.034 17.196 198.076 16.944 198.196 16.668L202.948 6.138C203.104 5.79 203.29 5.544 203.506 5.4C203.734 5.244 203.992 5.166 204.28 5.166C204.556 5.166 204.802 5.244 205.018 5.4C205.246 5.544 205.438 5.79 205.594 6.138L210.364 16.668C210.496 16.944 210.544 17.196 210.508 17.424C210.472 17.652 210.37 17.832 210.202 17.964C210.034 18.084 209.812 18.144 209.536 18.144C209.2 18.144 208.936 18.066 208.744 17.91C208.564 17.742 208.402 17.49 208.258 17.154L207.088 14.436L208.06 15.066H200.464L201.436 14.436L200.284 17.154C200.128 17.502 199.966 17.754 199.798 17.91C199.63 18.066 199.39 18.144 199.078 18.144ZM204.244 7.812L201.724 13.806L201.256 13.23H207.268L206.818 13.806L204.28 7.812H204.244ZM215.371 18C214.975 18 214.669 17.898 214.453 17.694C214.249 17.478 214.147 17.172 214.147 16.776V6.534C214.147 6.138 214.249 5.838 214.453 5.634C214.669 5.418 214.975 5.31 215.371 5.31H218.863C220.987 5.31 222.625 5.856 223.777 6.948C224.941 8.04 225.523 9.606 225.523 11.646C225.523 12.666 225.373 13.572 225.073 14.364C224.785 15.144 224.353 15.804 223.777 16.344C223.213 16.884 222.517 17.298 221.689 17.586C220.873 17.862 219.931 18 218.863 18H215.371ZM216.451 16.092H218.719C219.463 16.092 220.105 16.002 220.645 15.822C221.197 15.63 221.653 15.354 222.013 14.994C222.385 14.622 222.661 14.16 222.841 13.608C223.021 13.044 223.111 12.39 223.111 11.646C223.111 10.158 222.745 9.048 222.013 8.316C221.281 7.584 220.183 7.218 218.719 7.218H216.451V16.092Z" fill="#474952"/>
<path fill-rule="evenodd" clip-rule="evenodd" d="M15.4675 1.2209C13.9069 -0.342637 11.3766 -0.342635 9.81591 1.2209L4.46532 6.58137C4.81572 6.57217 5.19784 6.56297 5.61167 6.55378C6.16367 6.54178 6.61967 6.53578 6.97967 6.53578C9.34367 6.53578 11.1017 7.07578 12.2537 8.15578C13.4057 9.22378 13.9817 10.7598 13.9817 12.7638C13.9817 14.0718 13.6997 15.2178 13.1357 16.2018C12.5717 17.1738 11.7497 17.9298 10.6697 18.4698C9.60167 19.0098 8.31767 19.2798 6.81767 19.2798C6.62567 19.2798 6.37367 19.2738 6.06167 19.2618C5.74967 19.2498 5.42567 19.2438 5.08967 19.2438C5.00959 19.2409 4.93157 19.2384 4.85558 19.2362L10.4375 24.8285C11.9982 26.392 14.5285 26.392 16.0892 24.8285L21.6751 19.2322C21.2578 19.228 20.8703 19.2258 20.5127 19.2258H19.3607C18.8927 19.2258 18.3887 19.2318 17.8487 19.2438C17.3087 19.2438 16.7627 19.2498 16.2107 19.2618C15.6587 19.2618 15.1367 19.2678 14.6447 19.2798V18.9198C15.0287 18.8958 15.3167 18.8478 15.5087 18.7758C15.7007 18.7038 15.8267 18.5598 15.8867 18.3438C15.9587 18.1278 15.9947 17.8038 15.9947 17.3718V8.44384C15.9947 7.99984 15.9587 7.67584 15.8867 7.47184C15.8267 7.25584 15.6947 7.11184 15.4907 7.03984C15.2987 6.95584 15.0167 6.90784 14.6447 6.89584V6.53584C14.9447 6.54784 15.3467 6.55984 15.8507 6.57184C16.3667 6.58384 16.9127 6.58984 17.4887 6.58984C18.0167 6.58984 18.5327 6.58384 19.0367 6.57184C19.5527 6.55984 19.9787 6.54784 20.3147 6.53584V6.89584C19.9067 6.90784 19.5947 6.95584 19.3787 7.03984C19.1747 7.11184 19.0367 7.25584 18.9647 7.47184C18.8927 7.67584 18.8567 7.99984 18.8567 8.44384V17.5878C18.8567 17.9598 18.8807 18.2358 18.9287 18.4158C18.9887 18.5958 19.0967 18.7158 19.2527 18.7758C19.4207 18.8358 19.6667 18.8658 19.9907 18.8658H20.8727C21.2807 18.8658 21.6647 18.7698 22.0247 18.5778C22.3847 18.3858 22.7087 18.1158 22.9967 17.7678C23.2847 17.4078 23.5247 16.9818 23.7167 16.4898C23.9087 15.9978 24.0527 15.4518 24.1487 14.8518H24.5627C24.5275 15.2509 24.5095 15.7647 24.5087 16.3933L24.7346 16.1671C26.2952 14.6036 26.2952 12.0686 24.7346 10.505L15.4675 1.2209ZM2.76767 17.1445V8.44378C2.76767 8.3886 2.76711 8.33528 2.766 8.28382L1.17049 9.88227C-0.390163 11.4458 -0.390166 13.9808 1.17049 15.5443L2.76767 17.1445ZM6.96167 6.85978C6.40967 6.85978 6.04967 6.96178 5.88167 7.16578C5.71367 7.36978 5.62967 7.78378 5.62967 8.40778V17.4078C5.62967 18.0318 5.71367 18.4458 5.88167 18.6498C6.06167 18.8538 6.42767 18.9558 6.97967 18.9558C7.98767 18.9558 8.77967 18.7218 9.35567 18.2538C9.94367 17.7738 10.3637 17.0778 10.6157 16.1658C10.8677 15.2538 10.9937 14.1438 10.9937 12.8358C10.9937 11.4918 10.8557 10.3818 10.5797 9.50578C10.3157 8.61778 9.88967 7.95778 9.30167 7.52578C8.71367 7.08178 7.93367 6.85978 6.96167 6.85978Z" fill="black"/>
</svg>
